<svg width="37" height="37" viewBox="0 0 37 37" fill="none" xmlns="http://www.w3.org/2000/svg">
<path d="M14.0171 8.76615C14.0878 8.49808 14.1252 8.21867 14.1252 7.93199C14.1252 5.98003 12.3898 4.49979 10.2425 4.49979C8.33388 4.49979 6.74098 5.66921 6.41042 7.29988C6.07985 8.93055 4.91391 6.25 3.62525 6.25C2.33659 6.25 1.87497 8.24006 1.87497 9.39983C1.87497 10.5596 2.33659 11.4998 3.62525 11.4998H11.7919C13.0806 11.4998 14.1252 10.5596 14.1252 9.39983C14.1252 9.17898 14.0874 8.9661 14.0171 8.76615Z" stroke="#3A3A3A" stroke-width="2"/>
<path d="M28.1238 1C28.1238 3.30616 24.2827 5.375 22 5.375" stroke="#3A3A3A" stroke-width="2" stroke-linecap="round"/>
<path d="M28.1249 7.12495C28.1249 9.4311 25.1577 10.6249 22.8749 10.6249" stroke="#3A3A3A" stroke-width="2" stroke-linecap="round"/>
<path d="M28.1247 1C28.1247 3.30616 31.9675 5.375 34.2503 5.375" stroke="#3A3A3A" stroke-width="2" stroke-linecap="round"/>
<path d="M28.1253 7.12495C28.1253 9.4311 31.0926 10.6249 33.3753 10.6249" stroke="#3A3A3A" stroke-width="2" stroke-linecap="round"/>
<path d="M28.1249 16.75V1" stroke="#3A3A3A" stroke-width="2" stroke-linecap="round"/>
<path d="M1.28199 35.3107L8.7479 17.0607C8.82478 16.8728 9.00765 16.75 9.21068 16.75H27.7893C27.9924 16.75 28.1752 16.8728 28.2521 17.0607L35.718 35.3107C35.8526 35.6397 35.6106 36 35.2552 36H14.125H7.125H1.74477C1.38936 36 1.14743 35.6397 1.28199 35.3107Z" stroke="#3A3A3A" stroke-width="2"/>
<path d="M1.28199 35.3107L8.38478 17.9483C8.55789 17.5252 9.16121 17.5371 9.31745 17.9668L15.631 35.3292C15.7496 35.6553 15.5081 36 15.1611 36H7.125H1.74477C1.38936 36 1.14743 35.6397 1.28199 35.3107Z" stroke="#3A3A3A" stroke-width="2"/>
<path d="M8.875 35.125V20.25" stroke="#3A3A3A" stroke-width="2" stroke-linecap="round"/>
</svg>
