<svg width="31" height="30" viewBox="0 0 31 30" fill="none" xmlns="http://www.w3.org/2000/svg">
<path d="M9.47363 2.58624L29.9999 2.58624" stroke="#121219" stroke-width="2" stroke-linecap="round"/>
<path d="M9.47363 15L29.9999 15" stroke="#121219" stroke-width="2" stroke-linecap="round"/>
<path d="M9.47363 27.4138L29.9999 27.4138" stroke="#121219" stroke-width="2" stroke-linecap="round"/>
<path d="M1.97368 17.5862C3.06372 17.5862 3.94737 16.4283 3.94737 15C3.94737 13.5716 3.06372 12.4138 1.97368 12.4138C0.883648 12.4138 0 13.5716 0 15C0 16.4283 0.883648 17.5862 1.97368 17.5862Z" fill="#121219"/>
<path d="M1.97368 5.17241C3.06372 5.17241 3.94737 4.01453 3.94737 2.58621C3.94737 1.15788 3.06372 0 1.97368 0C0.883648 0 0 1.15788 0 2.58621C0 4.01453 0.883648 5.17241 1.97368 5.17241Z" fill="#121219"/>
<path d="M1.97368 30C3.06372 30 3.94737 28.8421 3.94737 27.4138C3.94737 25.9855 3.06372 24.8276 1.97368 24.8276C0.883648 24.8276 0 25.9855 0 27.4138C0 28.8421 0.883648 30 1.97368 30Z" fill="#121219"/>
</svg>
