<svg width="30" height="38" viewBox="0 0 30 38" fill="none" xmlns="http://www.w3.org/2000/svg">
<path d="M14.7344 1C21.8337 1 28.4286 6.68504 28.4286 13.8571C28.4286 18.5978 26.827 21.9495 24.1429 25.8571C20.8999 30.5783 16.6854 35.0004 15.2328 36.479C14.9464 36.7706 14.4822 36.7706 14.1958 36.479C12.7432 35.0004 8.52864 30.5783 5.28571 25.8571C2.6016 21.9495 1 18.5978 1 13.8571C1 6.68504 7.59477 1 14.694 1" stroke="#121219" stroke-width="2" stroke-linecap="round"/>
<path d="M19.8571 14.6146C19.8571 17.4828 17.5621 19.8549 14.7224 19.8549C11.8827 19.8549 9.57141 17.4828 9.57141 14.6146C9.57141 11.7463 11.8827 9.57121 14.7224 9.57121C17.5621 9.57121 19.8571 11.7463 19.8571 14.6146Z" stroke="#121219" stroke-width="2"/>
</svg>
