<svg width="37" height="37" viewBox="0 0 37 37" fill="none" xmlns="http://www.w3.org/2000/svg">
<path d="M1 22L16.6269 2.14461C17.1957 1.42188 18.0646 1 18.9844 1H21.9306C22.8355 1 23.692 1.40841 24.2616 2.11147L36 16.6" stroke="#121219" stroke-width="2" stroke-linecap="round"/>
<path d="M29.3784 8C28.2139 8 27.0046 8.85034 26.0111 9.85961C25.2822 10.6001 24.0151 10.6001 23.2862 9.85961C22.2927 8.85034 21.0834 8 19.9189 8C18.7544 8 17.5452 8.85034 16.5516 9.85961C15.8227 10.6001 14.5524 10.6022 13.8173 9.86785C13.3648 9.41587 12.8673 8.99533 12.3514 8.66817" stroke="#121219" stroke-width="2"/>
<path d="M1 22L32.5 22C34.433 22 36 23.567 36 25.5V25.5C36 27.433 34.433 29 32.5 29L18.973 29" stroke="#121219" stroke-width="2"/>
<path d="M28.4324 36H13.0135C11.0805 36 9.51352 34.433 9.51352 32.5V32.5C9.51352 30.567 11.0805 29 13.0135 29H28.4324" stroke="#121219" stroke-width="2" stroke-linecap="round"/>
</svg>
